<svg width="814" height="559" viewBox="0 0 814 559" fill="none" xmlns="http://www.w3.org/2000/svg">
<g filter="url(#filter0_d_102_10)">
<path d="M487.6 4.5C479.8 19.7 469.4 24.8 437.5 29.2C427.4 30.6 405 30.9 256.8 31.2L87.5 31.6V121.9V212.2L92.1 212.9C94.7 213.2 103.9 213.5 112.6 213.5H128.5V143V72.5L285.8 72.2L443 71.9L450.4 69.8C472.2 63.4 485.1 51.2 490 32C491.5 26 491.9 8.8 490.6 3L489.9 -3.1814e-06L487.6 4.5Z" fill="url(#paint0_linear_102_10)"/>
<path d="M553.4 42.5C547 42.9 538.2 43.6 533.9 44L526 44.7L525.9 58.3C525.8 69.9 525.4 73.3 523.3 80.3C520.8 88.6 520.8 88.7 522.9 88.1C537.6 84.5 588.9 83.7 607 86.8C625.6 90 635.4 92.6 638 95.3C639.4 96.7 640.5 98.3 640.5 98.9C640.5 100.6 636.6 104 624.1 113.3C612.5 122 609.7 123.1 601.2 122.2C573.5 119.4 569.4 119.3 557.1 120.4C541.6 121.8 531.9 123.7 519.7 127.8C510.6 130.8 510.2 131.1 508 135.5C499.1 153.1 478.7 171.2 458.5 179.6C449.3 183.4 449.5 183.3 446.2 189.3L443.5 194.2L454.8 199.8C460.9 202.9 469.1 207.9 473 210.9L479.9 216.3L482.6 211.4C489.4 199 500.9 186.2 512 178.5C519.2 173.6 532.3 167.8 541.6 165.4C554 162.3 577 161.7 590.6 164C610.1 167.3 630.5 165.6 642.3 159.6C649.1 156.1 672.1 138.5 694.2 119.7C707.6 108.3 708.8 106.5 708.6 96.8C708.5 84.4 700 74.7 681.2 65.5C646.2 48.4 597.2 39.6 553.4 42.5Z" fill="url(#paint1_linear_102_10)"/>
<path d="M478.5 81.8C467.5 94.1 449.1 103.8 425.5 109.8C417.1 111.9 415.6 111.9 300.8 112.2L184.5 112.6V163V213.5H204.5H224.5V183.5V153.5L240.3 153.4C248.9 153.3 289.3 153.3 330 153.4C379 153.6 407.2 153.3 413.5 152.5C450.5 148.2 472.9 131.8 480.4 103.3C482.7 94.5 483.8 83.9 482.8 80.5L482 78L478.5 81.8Z" fill="url(#paint2_linear_102_10)"/>
<path d="M788 159C778.8 163.9 772.5 172.1 767.9 185.4C762.2 201.9 761.2 222.3 764.6 256.5C773.5 345.2 756 410.6 711.5 455.5C684.3 482.8 653.7 498.2 612 505.6C596.8 508.3 560.5 509.3 542.9 507.6C468.4 500.1 414.4 460.8 387.9 395C384.8 387.2 384.6 387 380.4 385.8C377.9 385.2 368.3 384.6 357.8 384.6L339.7 384.5L341.7 391.7C344.6 402.1 351.9 420.4 357.6 431.5C379.1 473.7 414.8 508.2 457.7 528.5C479.1 538.5 508.4 546.5 536 549.7C552 551.5 591.9 551.2 608 549.1C651.1 543.5 687.5 529.3 718.3 506.1C769.9 467.2 800.2 409.6 808 335.1C810.3 312.5 810 279.9 807 249.4C803.4 212 800.7 188.5 798.5 175.5C797.5 169.2 796.5 162.4 796.3 160.5C795.9 156 794.2 155.7 788 159Z" fill="url(#paint3_linear_102_10)"/>
<path d="M691 179.4C678.3 186.7 671.3 200.8 668.5 224.5C667.5 232.8 667.6 236.6 669.5 253C672.2 276.6 673.2 311.2 671.6 325.6C666.1 373.6 647.4 404.6 614.2 421C599.1 428.4 592.2 429.8 570.5 429.9C549.9 430 543.5 428.9 529.4 423C514.4 416.7 496.9 402.1 488.2 388.6L484 382.1L483.4 392.6C483.1 398.5 482.1 404.9 481.2 407.4C479 413 473.5 420.2 468.5 423.9C463.7 427.5 463.9 427.9 473.7 436.7C494.6 455.4 516.4 466.3 542.5 471.2C556.9 473.9 585.5 473.6 599.5 470.6C626 465 646.4 454.5 665.4 436.8C683.8 419.8 696.5 399.1 704.9 372.5C717.1 334.1 718.5 286.7 709 232.5C699.8 179.8 699.1 176.5 697.6 176.5C696.7 176.5 693.7 177.8 691 179.4Z" fill="url(#paint4_linear_102_10)"/>
<path d="M5.9 185.7C4.5 189.7 4 193.9 4 202.5C4 213.5 4.1 214.3 7.3 220.7C15.8 238 40.9 252.1 76.5 259.5C110.4 266.5 94.4 266 259.5 266.1C341.2 266.2 411.2 266.5 415 266.9C441 269 463.9 282.4 474.5 301.6C477.9 307.9 478.1 307.2 476.5 293C472.7 259.3 456.5 238.6 426 228.3L419 226L272 225.8C191.2 225.8 117.8 225.4 109 225.1C83.3 224.2 61.4 220 42.2 212.5C24.2 205.5 14.8 197.7 10 185.9L7.7 180.3L5.9 185.7Z" fill="url(#paint5_linear_102_10)"/>
<path d="M87.5 412.4V550.5H156H224.5V449V347.4L305.8 347.7L387 348L394.5 350.3C405.1 353.6 418.9 360.4 426.4 366C433.4 371.3 440.5 380.1 444.1 388C446.8 393.8 446.7 393.9 445.5 381.2C442.4 349.5 428.4 326.9 404.3 315.1C385.8 305.9 394.3 306.5 282.8 306.5H184.5V408V509.5H156.5H128.5V394V278.5H124.2C121.8 278.5 114.7 277.8 108.4 277C102.1 276.1 94.9 275.1 92.3 274.8L87.5 274.2V412.4Z" fill="url(#paint6_linear_102_10)"/>
</g>
<defs>
<filter id="filter0_d_102_10" x="0" y="0" width="813.517" height="558.882" filterUnits="userSpaceOnUse" color-interpolation-filters="sRGB">
<feFlood flood-opacity="0" result="BackgroundImageFix"/>
<feColorMatrix in="SourceAlpha" type="matrix" values="0 0 0 0 0 0 0 0 0 0 0 0 0 0 0 0 0 0 127 0" result="hardAlpha"/>
<feOffset dy="4"/>
<feGaussianBlur stdDeviation="2"/>
<feComposite in2="hardAlpha" operator="out"/>
<feColorMatrix type="matrix" values="0 0 0 0 0 0 0 0 0 0 0 0 0 0 0 0 0 0 0.25 0"/>
<feBlend mode="normal" in2="BackgroundImageFix" result="effect1_dropShadow_102_10"/>
<feBlend mode="normal" in="SourceGraphic" in2="effect1_dropShadow_102_10" result="shape"/>
</filter>
<linearGradient id="paint0_linear_102_10" x1="289.442" y1="213.5" x2="289.442" y2="0" gradientUnits="userSpaceOnUse">
<stop stop-color="white" stop-opacity="0"/>
<stop offset="0.21875" stop-color="#26B4D7" stop-opacity="0.928"/>
<stop offset="0.65625" stop-color="#15AED4"/>
</linearGradient>
<linearGradient id="paint1_linear_102_10" x1="576.059" y1="216.3" x2="576.059" y2="41.9543" gradientUnits="userSpaceOnUse">
<stop stop-color="white" stop-opacity="0"/>
<stop offset="0.21875" stop-color="#26B4D7" stop-opacity="0.928"/>
<stop offset="0.65625" stop-color="#15AED4"/>
</linearGradient>
<linearGradient id="paint2_linear_102_10" x1="333.835" y1="213.5" x2="333.835" y2="78" gradientUnits="userSpaceOnUse">
<stop stop-color="white" stop-opacity="0"/>
<stop offset="0.21875" stop-color="#26B4D7" stop-opacity="0.928"/>
<stop offset="0.65625" stop-color="#15AED4"/>
</linearGradient>
<linearGradient id="paint3_linear_102_10" x1="574.609" y1="550.882" x2="574.609" y2="156.786" gradientUnits="userSpaceOnUse">
<stop stop-color="white" stop-opacity="0"/>
<stop offset="0.21875" stop-color="#26B4D7" stop-opacity="0.928"/>
<stop offset="0.65625" stop-color="#15AED4"/>
</linearGradient>
<linearGradient id="paint4_linear_102_10" x1="590.326" y1="473.051" x2="590.326" y2="176.5" gradientUnits="userSpaceOnUse">
<stop stop-color="white" stop-opacity="0"/>
<stop offset="0.21875" stop-color="#26B4D7" stop-opacity="0.928"/>
<stop offset="0.65625" stop-color="#15AED4"/>
</linearGradient>
<linearGradient id="paint5_linear_102_10" x1="240.734" y1="305.393" x2="240.734" y2="180.3" gradientUnits="userSpaceOnUse">
<stop stop-color="white" stop-opacity="0"/>
<stop offset="0.21875" stop-color="#26B4D7" stop-opacity="0.928"/>
<stop offset="0.65625" stop-color="#15AED4"/>
</linearGradient>
<linearGradient id="paint6_linear_102_10" x1="266.902" y1="550.5" x2="266.902" y2="274.2" gradientUnits="userSpaceOnUse">
<stop stop-color="white" stop-opacity="0"/>
<stop offset="0.21875" stop-color="#26B4D7" stop-opacity="0.928"/>
<stop offset="0.65625" stop-color="#15AED4"/>
</linearGradient>
</defs>
</svg>
