<?xml version="1.0" standalone="no"?>
<!DOCTYPE svg PUBLIC "-//W3C//DTD SVG 20010904//EN"
 "http://www.w3.org/TR/2001/REC-SVG-20010904/DTD/svg10.dtd">
<svg version="1.0" xmlns="http://www.w3.org/2000/svg"
 width="1000.000000pt" height="1000.000000pt" viewBox="0 0 1000.000000 1000.000000"
 preserveAspectRatio="xMidYMid meet">

<g transform="translate(0.000000,1000.000000) scale(0.100000,-0.100000)"
fill="#000000" stroke="none">
<path d="M5811 7710 c-78 -152 -182 -203 -501 -247 -101 -14 -325 -17 -1807
-20 l-1693 -4 0 -903 0 -903 46 -7 c26 -3 118 -6 205 -6 l159 0 0 705 0 705
1573 3 1572 3 74 21 c218 64 347 186 396 378 15 60 19 232 6 290 l-7 30 -23
-45z"/>
<path d="M6469 7330 c-64 -4 -152 -11 -195 -15 l-79 -7 -1 -136 c-1 -116 -5
-150 -26 -220 -25 -83 -25 -84 -4 -78 147 36 660 44 841 13 186 -32 284 -58
310 -85 14 -14 25 -30 25 -36 0 -17 -39 -51 -164 -144 -116 -87 -144 -98 -229
-89 -277 28 -318 29 -441 18 -155 -14 -252 -33 -374 -74 -91 -30 -95 -33 -117
-77 -89 -176 -293 -357 -495 -441 -92 -38 -90 -37 -123 -97 l-27 -49 113 -56
c61 -31 143 -81 182 -111 l69 -54 27 49 c68 124 183 252 294 329 72 49 203
107 296 131 124 31 354 37 490 14 195 -33 399 -16 517 44 68 35 298 211 519
399 134 114 146 132 144 229 -1 124 -86 221 -274 313 -350 171 -840 259 -1278
230z"/>
<path d="M5720 6937 c-110 -123 -294 -220 -530 -280 -84 -21 -99 -21 -1247
-24 l-1163 -4 0 -504 0 -505 200 0 200 0 0 300 0 300 158 1 c86 1 490 1 897 0
490 -2 772 1 835 9 370 43 594 207 669 492 23 88 34 194 24 228 l-8 25 -35
-38z"/>
<path d="M8815 6165 c-92 -49 -155 -131 -201 -264 -57 -165 -67 -369 -33 -711
89 -887 -86 -1541 -531 -1990 -272 -273 -578 -427 -995 -501 -152 -27 -515
-37 -691 -20 -745 75 -1285 468 -1550 1126 -31 78 -33 80 -75 92 -25 6 -121
12 -226 12 l-181 1 20 -72 c29 -104 102 -287 159 -398 215 -422 572 -767 1001
-970 214 -100 507 -180 783 -212 160 -18 559 -15 720 6 431 56 795 198 1103
430 516 389 819 965 897 1710 23 226 20 552 -10 857 -36 374 -63 609 -85 739
-10 63 -20 131 -22 150 -4 45 -21 48 -83 15z"/>
<path d="M7845 5961 c-127 -73 -197 -214 -225 -451 -10 -83 -9 -121 10 -285
27 -236 37 -582 21 -726 -55 -480 -242 -790 -574 -954 -151 -74 -220 -88 -437
-89 -206 -1 -270 10 -411 69 -150 63 -325 209 -412 344 l-42 65 -6 -105 c-3
-59 -13 -123 -22 -148 -22 -56 -77 -128 -127 -165 -48 -36 -46 -40 52 -128
209 -187 427 -296 688 -345 144 -27 430 -24 570 6 265 56 469 161 659 338 184
170 311 377 395 643 122 384 136 858 41 1400 -92 527 -99 560 -114 560 -9 0
-39 -13 -66 -29z"/>
<path d="M994 5898 c-14 -40 -19 -82 -19 -168 0 -110 1 -118 33 -182 85 -173
336 -314 692 -388 339 -70 179 -65 1830 -66 817 -1 1517 -4 1555 -8 260 -21
489 -155 595 -347 34 -63 36 -56 20 86 -38 337 -200 544 -505 647 l-70 23
-1470 2 c-808 0 -1542 4 -1630 7 -257 9 -476 51 -668 126 -180 70 -274 148
-322 266 l-23 56 -18 -54z"/>
<path d="M1810 3631 l0 -1381 685 0 685 0 0 1015 0 1016 813 -3 812 -3 75 -23
c106 -33 244 -101 319 -157 70 -53 141 -141 177 -220 27 -58 26 -59 14 68 -31
317 -171 543 -412 661 -185 92 -100 86 -1215 86 l-983 0 0 -1015 0 -1015 -280
0 -280 0 0 1155 0 1155 -43 0 c-24 0 -95 7 -158 15 -63 9 -135 19 -161 22
l-48 6 0 -1382z"/>
<path d="M226 2331 c-3 -4 -17 -6 -30 -4 -20 4 -26 0 -31 -20 -7 -26 0 -47 14
-47 5 0 6 11 3 25 -3 18 0 25 12 25 9 0 16 -7 16 -15 0 -22 17 -18 23 6 8 29
32 18 32 -14 -1 -30 12 -36 22 -11 14 37 -41 87 -61 55z"/>
<path d="M160 2222 c0 -5 7 -17 15 -28 13 -17 14 -17 15 -1 0 14 9 17 50 17
28 0 50 5 50 10 0 6 -28 10 -65 10 -36 0 -65 -4 -65 -8z"/>
<path d="M177 2152 c-22 -24 -21 -35 1 -55 25 -22 75 -21 95 1 23 25 21 38 -5
56 -30 21 -71 20 -91 -2z m77 -8 c24 -9 19 -33 -8 -40 -31 -7 -66 3 -66 21 0
21 41 32 74 19z"/>
<path d="M176 2044 c-19 -18 -20 -28 -6 -55 19 -35 70 -17 70 26 1 18 3 17 18
-7 17 -29 32 -36 32 -17 0 18 -57 69 -79 69 -11 0 -27 -7 -35 -16z m42 -26
c-2 -12 -9 -23 -15 -26 -19 -6 -29 28 -12 39 23 14 31 10 27 -13z"/>
<path d="M177 1932 c-22 -24 -21 -35 1 -55 36 -33 112 -13 112 28 0 20 -40 45
-71 45 -14 0 -33 -8 -42 -18z m77 -8 c24 -9 19 -33 -8 -40 -31 -7 -66 3 -66
21 0 21 41 32 74 19z"/>
<path d="M160 1822 c0 -5 7 -17 15 -28 13 -17 14 -17 15 -1 0 14 9 17 50 17
28 0 50 5 50 10 0 6 -28 10 -65 10 -36 0 -65 -4 -65 -8z"/>
<path d="M226 1761 c-3 -4 -17 -6 -30 -4 -21 4 -26 0 -32 -22 -4 -15 -2 -31 5
-38 8 -8 11 -4 11 16 0 17 5 27 15 27 8 0 15 -7 15 -15 0 -22 17 -18 23 6 8
29 32 18 32 -14 -1 -30 12 -36 22 -11 14 37 -41 87 -61 55z"/>
<path d="M222 1658 c-5 -7 -12 -22 -14 -33 -4 -18 -6 -17 -18 8 -14 30 -33 38
-23 10 11 -31 46 -63 69 -63 23 0 54 24 54 41 0 39 -46 64 -68 37z m43 -34 c0
-10 -8 -20 -17 -22 -18 -3 -26 27 -11 42 12 11 28 0 28 -20z"/>
<path d="M240 1550 c0 -7 -15 -9 -40 -5 -53 8 -54 -15 -3 -50 47 -32 63 -32
63 0 0 16 6 25 15 25 8 0 15 7 15 16 0 10 -6 14 -15 10 -8 -3 -15 -1 -15 4 0
6 -4 10 -10 10 -5 0 -10 -5 -10 -10z m-3 -35 c9 -25 -2 -27 -28 -6 l-24 20 23
1 c12 0 25 -7 29 -15z"/>
<path d="M190 1449 c0 -5 -4 -7 -10 -4 -5 3 -10 2 -10 -4 0 -5 6 -12 13 -15 9
-5 9 -7 0 -12 -10 -4 -9 -9 2 -20 8 -9 20 -12 26 -8 6 3 14 1 18 -5 5 -8 15
-9 31 -3 19 7 21 10 7 15 -23 9 -22 28 1 20 12 -4 11 0 -7 17 -18 18 -25 20
-32 9 -6 -11 -9 -10 -15 4 -7 19 -24 23 -24 6z m45 -39 c-3 -5 -10 -10 -16
-10 -5 0 -9 5 -9 10 0 6 7 10 16 10 8 0 12 -4 9 -10z"/>
<path d="M140 1280 c0 -6 38 -10 95 -10 57 0 95 4 95 10 0 6 -38 10 -95 10
-57 0 -95 -4 -95 -10z"/>
<path d="M261 1189 c-22 -18 -25 -19 -42 -3 -11 10 -22 14 -27 10 -4 -4 4 -16
17 -27 l23 -19 -46 0 c-34 0 -46 -4 -46 -15 0 -12 15 -15 75 -15 60 0 75 3 75
15 0 9 -9 15 -22 15 l-23 0 24 19 c13 10 22 23 20 29 -2 6 -14 3 -28 -9z"/>
<path d="M190 1081 c0 -27 27 -51 55 -51 24 0 45 25 45 54 0 25 -18 19 -22 -6
-2 -17 -10 -23 -28 -23 -18 0 -26 6 -28 23 -4 27 -22 30 -22 3z"/>
<path d="M206 994 c-19 -18 -20 -28 -6 -55 21 -39 90 -16 90 30 0 16 -30 41
-50 41 -10 0 -26 -7 -34 -16z m59 -29 c0 -22 -31 -33 -47 -17 -17 17 -1 44 24
40 15 -2 23 -10 23 -23z"/>
<path d="M190 900 c0 -5 -7 -10 -15 -10 -8 0 -15 -4 -15 -10 0 -5 6 -10 14
-10 8 0 17 -6 20 -12 5 -10 7 -10 12 0 3 6 21 12 40 12 34 0 56 22 39 38 -4 4
-10 1 -12 -5 -5 -15 -63 -18 -63 -3 0 6 -4 10 -10 10 -5 0 -10 -4 -10 -10z"/>
<path d="M212 810 c-19 -34 -35 -34 -40 -2 -5 30 -22 28 -22 -2 0 -50 54 -61
77 -16 17 34 38 32 38 -3 -1 -32 18 -31 23 2 8 53 -49 69 -76 21z"/>
<path d="M200 675 c-22 -26 3 -65 40 -65 35 0 58 36 45 67 -7 16 -9 15 -13 -7
-6 -40 -22 -48 -22 -12 0 25 -4 32 -19 32 -10 0 -24 -7 -31 -15z m30 -26 c0
-11 -4 -17 -10 -14 -5 3 -10 13 -10 21 0 8 5 14 10 14 6 0 10 -9 10 -21z"/>
<path d="M197 561 c-8 -22 -18 -31 -34 -31 -14 0 -23 -6 -23 -15 0 -23 138
-22 147 2 10 26 -19 68 -50 71 -24 3 -30 -2 -40 -27z m57 3 c28 -11 18 -34
-14 -34 -18 0 -30 5 -30 13 0 25 15 32 44 21z"/>
<path d="M206 464 c-19 -18 -20 -28 -6 -55 21 -39 90 -16 90 30 0 16 -30 41
-50 41 -10 0 -26 -7 -34 -16z m59 -29 c0 -22 -31 -33 -47 -17 -17 17 -1 44 24
40 15 -2 23 -10 23 -23z"/>
<path d="M140 350 c0 -5 11 -10 25 -10 15 0 25 -6 25 -14 0 -45 73 -62 92 -22
20 45 6 56 -72 56 -40 0 -70 -4 -70 -10z m128 -27 c-2 -12 -12 -18 -28 -18
-16 0 -26 6 -28 18 -3 13 3 17 28 17 25 0 31 -4 28 -17z"/>
<path d="M220 246 c-36 -13 -66 -29 -68 -37 -1 -9 20 -21 68 -35 38 -12 70
-17 70 -12 0 6 -9 12 -20 15 -14 4 -20 14 -20 34 0 22 5 29 20 29 11 0 20 7
20 15 0 8 -1 15 -2 14 -2 0 -32 -11 -68 -23z m8 -51 c-7 -7 -48 7 -48 15 0 15
45 16 48 2 2 -8 2 -15 0 -17z"/>
</g>
</svg>
